<svg width="20" height="20" viewBox="0 0 20 20" fill="none" xmlns="http://www.w3.org/2000/svg">
<path d="M17.1564 9.44375L3.40636 2.56875C3.29859 2.51486 3.17754 2.49326 3.05778 2.50657C2.93803 2.51988 2.82467 2.56752 2.73136 2.64375C2.64225 2.71844 2.57574 2.8165 2.5393 2.92691C2.50287 3.03732 2.49795 3.1557 2.52511 3.26875L4.18136 9.375H11.2501V10.625H4.18136L2.50011 16.7125C2.47463 16.8069 2.47165 16.906 2.49143 17.0018C2.5112 17.0975 2.55317 17.1873 2.61396 17.2639C2.67475 17.3405 2.75267 17.4018 2.84144 17.4428C2.93022 17.4838 3.02738 17.5034 3.12511 17.5C3.22295 17.4994 3.31928 17.4759 3.40636 17.4313L17.1564 10.5563C17.2587 10.5038 17.3447 10.4241 17.4046 10.326C17.4646 10.2278 17.4964 10.115 17.4964 10C17.4964 9.88497 17.4646 9.77218 17.4046 9.67403C17.3447 9.57589 17.2587 9.4962 17.1564 9.44375Z" fill="#375DFB"/>
</svg>
