<svg width="61" height="61" viewBox="0 0 61 61" fill="none" xmlns="http://www.w3.org/2000/svg">
<g filter="url(#filter0_di_33_14814)">
<rect x="6" y="2" width="49" height="49" rx="24.5" fill="#375DFB"/>
<rect x="6" y="2" width="49" height="49" rx="24.5" fill="white" fill-opacity="0.1"/>
<path fill-rule="evenodd" clip-rule="evenodd" d="M27.125 18.0625C27.5017 18.0625 27.8328 18.3122 27.9363 18.6745L28.8511 21.8764C29.2516 23.2779 30.3471 24.3734 31.7486 24.7739L34.9505 25.6887C35.3128 25.7922 35.5625 26.1233 35.5625 26.5C35.5625 26.8767 35.3128 27.2078 34.9505 27.3113L31.7486 28.2261C30.3471 28.6266 29.2516 29.7221 28.8511 31.1236L27.9363 34.3255C27.8328 34.6878 27.5017 34.9375 27.125 34.9375C26.7483 34.9375 26.4172 34.6878 26.3137 34.3255L25.3989 31.1236C24.9984 29.7221 23.9029 28.6266 22.5014 28.2261L19.2995 27.3113C18.9372 27.2078 18.6875 26.8767 18.6875 26.5C18.6875 26.1233 18.9372 25.7922 19.2995 25.6887L22.5014 24.7739C23.9029 24.3734 24.9984 23.2779 25.3989 21.8764L26.3137 18.6745C26.4172 18.3122 26.7483 18.0625 27.125 18.0625Z" fill="url(#paint0_linear_33_14814)"/>
<path fill-rule="evenodd" clip-rule="evenodd" d="M37.25 14.6875C37.6372 14.6875 37.9747 14.951 38.0686 15.3266L38.3598 16.4915C38.6243 17.5496 39.4504 18.3757 40.5085 18.6402L41.6734 18.9314C42.049 19.0253 42.3125 19.3628 42.3125 19.75C42.3125 20.1372 42.049 20.4747 41.6734 20.5686L40.5085 20.8598C39.4504 21.1243 38.6243 21.9504 38.3598 23.0085L38.0686 24.1734C37.9747 24.549 37.6372 24.8125 37.25 24.8125C36.8628 24.8125 36.5253 24.549 36.4314 24.1734L36.1402 23.0085C35.8757 21.9504 35.0496 21.1243 33.9915 20.8598L32.8266 20.5686C32.451 20.4747 32.1875 20.1372 32.1875 19.75C32.1875 19.3628 32.451 19.0253 32.8266 18.9314L33.9915 18.6402C35.0496 18.3757 35.8757 17.5496 36.1402 16.4915L36.4314 15.3266C36.5253 14.951 36.8628 14.6875 37.25 14.6875Z" fill="url(#paint1_linear_33_14814)"/>
<path fill-rule="evenodd" clip-rule="evenodd" d="M35.5625 29.875C35.9257 29.875 36.2481 30.1074 36.363 30.4519L36.8065 31.7825C36.9744 32.2864 37.3699 32.6818 37.8737 32.8498L39.2043 33.2933C39.5489 33.4081 39.7812 33.7306 39.7812 34.0938C39.7812 34.4569 39.5489 34.7794 39.2043 34.8942L37.8737 35.3377C37.3699 35.5057 36.9744 35.9011 36.8065 36.405L36.363 37.7356C36.2481 38.0801 35.9257 38.3125 35.5625 38.3125C35.1993 38.3125 34.8769 38.0801 34.762 37.7356L34.3185 36.405C34.1506 35.9011 33.7552 35.5057 33.2513 35.3377L31.9207 34.8942C31.5761 34.7794 31.3438 34.4569 31.3438 34.0938C31.3438 33.7306 31.5761 33.4081 31.9207 33.2933L33.2513 32.8498C33.7552 32.6818 34.1506 32.2864 34.3185 31.7825L34.762 30.4519C34.8769 30.1074 35.1993 29.875 35.5625 29.875Z" fill="url(#paint2_linear_33_14814)"/>
</g>
<defs>
<filter id="filter0_di_33_14814" x="0.2" y="-2" width="60.6" height="62.8" filterUnits="userSpaceOnUse" color-interpolation-filters="sRGB">
<feFlood flood-opacity="0" result="BackgroundImageFix"/>
<feColorMatrix in="SourceAlpha" type="matrix" values="0 0 0 0 0 0 0 0 0 0 0 0 0 0 0 0 0 0 127 0" result="hardAlpha"/>
<feOffset dy="4"/>
<feGaussianBlur stdDeviation="2.9"/>
<feComposite in2="hardAlpha" operator="out"/>
<feColorMatrix type="matrix" values="0 0 0 0 0 0 0 0 0 0 0 0 0 0 0 0 0 0 0.07 0"/>
<feBlend mode="normal" in2="BackgroundImageFix" result="effect1_dropShadow_33_14814"/>
<feBlend mode="normal" in="SourceGraphic" in2="effect1_dropShadow_33_14814" result="shape"/>
<feColorMatrix in="SourceAlpha" type="matrix" values="0 0 0 0 0 0 0 0 0 0 0 0 0 0 0 0 0 0 127 0" result="hardAlpha"/>
<feOffset dy="-4"/>
<feGaussianBlur stdDeviation="4"/>
<feComposite in2="hardAlpha" operator="arithmetic" k2="-1" k3="1"/>
<feColorMatrix type="matrix" values="0 0 0 0 1 0 0 0 0 1 0 0 0 0 1 0 0 0 0.64 0"/>
<feBlend mode="normal" in2="shape" result="effect2_innerShadow_33_14814"/>
</filter>
<linearGradient id="paint0_linear_33_14814" x1="30.5" y1="14.6875" x2="30.5" y2="38.3125" gradientUnits="userSpaceOnUse">
<stop stop-color="white"/>
<stop offset="1" stop-color="white" stop-opacity="0.5"/>
</linearGradient>
<linearGradient id="paint1_linear_33_14814" x1="30.5" y1="14.6875" x2="30.5" y2="38.3125" gradientUnits="userSpaceOnUse">
<stop stop-color="white"/>
<stop offset="1" stop-color="white" stop-opacity="0.5"/>
</linearGradient>
<linearGradient id="paint2_linear_33_14814" x1="30.5" y1="14.6875" x2="30.5" y2="38.3125" gradientUnits="userSpaceOnUse">
<stop stop-color="white"/>
<stop offset="1" stop-color="white" stop-opacity="0.5"/>
</linearGradient>
</defs>
</svg>
