<svg width="28" height="28" viewBox="0 0 28 28" fill="none" xmlns="http://www.w3.org/2000/svg">
<path d="M19.4545 18.3636H9C6.99091 18.3636 5.36364 16.4109 5.36364 14C5.36364 11.5891 6.99091 9.63636 9 9.63636H20.3636C20.9664 9.63636 21.5445 9.9237 21.9707 10.4352C22.3969 10.9466 22.6364 11.6403 22.6364 12.3636C22.6364 13.087 22.3969 13.7806 21.9707 14.2921C21.5445 14.8036 20.9664 15.0909 20.3636 15.0909H10.8182C10.3182 15.0909 9.90909 14.6 9.90909 14C9.90909 13.4 10.3182 12.9091 10.8182 12.9091H19.4545V11.2727H10.8182C10.2154 11.2727 9.63734 11.5601 9.21112 12.0715C8.7849 12.583 8.54545 13.2767 8.54545 14C8.54545 14.7233 8.7849 15.417 9.21112 15.9285C9.63734 16.4399 10.2154 16.7273 10.8182 16.7273H20.3636C22.3727 16.7273 24 14.7745 24 12.3636C24 9.95273 22.3727 8 20.3636 8H9C6.23636 8 4 10.6836 4 14C4 17.3164 6.23636 20 9 20H19.4545V18.3636Z" fill="black"/>
</svg>
