<svg width="20" height="20" viewBox="0 0 20 20" fill="none" xmlns="http://www.w3.org/2000/svg">
<path d="M17.4908 8.90625L4.36581 1.41485C4.14457 1.29074 3.89081 1.23689 3.63823 1.26043C3.38566 1.28398 3.14622 1.38382 2.95174 1.54668C2.75725 1.70954 2.61692 1.92772 2.54938 2.17224C2.48185 2.41676 2.4903 2.67603 2.57363 2.91563L4.9955 9.9836C4.99519 9.98619 4.99519 9.98882 4.9955 9.99141C4.99506 9.994 4.99506 9.99664 4.9955 9.99922L2.57363 17.0828C2.5069 17.2713 2.48635 17.473 2.51372 17.6711C2.54108 17.8691 2.61555 18.0577 2.73089 18.2211C2.84622 18.3844 2.99905 18.5177 3.17655 18.6097C3.35405 18.7017 3.55103 18.7498 3.75097 18.75C3.9679 18.7495 4.18102 18.6929 4.36972 18.5859L17.4877 11.082C17.6812 10.9736 17.8424 10.8157 17.9547 10.6245C18.067 10.4332 18.1264 10.2155 18.1268 9.99372C18.1272 9.77193 18.0686 9.55403 17.9569 9.36237C17.8453 9.17072 17.6847 9.01222 17.4916 8.90313L17.4908 8.90625ZM3.75097 17.5V17.493L6.10566 10.625H10.626C10.7917 10.625 10.9507 10.5592 11.0679 10.4419C11.1851 10.3247 11.251 10.1658 11.251 10C11.251 9.83424 11.1851 9.67527 11.0679 9.55806C10.9507 9.44085 10.7917 9.375 10.626 9.375H6.11191L3.75566 2.50938L3.75097 2.5L16.876 9.98672L3.75097 17.5Z" fill="#1C1C1C" fill-opacity="0.4"/>
</svg>
