<svg width="61" height="61" viewBox="0 0 61 61" fill="none" xmlns="http://www.w3.org/2000/svg">
<g filter="url(#filter0_di_33_14816)">
<rect x="6" y="2" width="49" height="49" rx="24.5" fill="#375DFB"/>
<rect x="6" y="2" width="49" height="49" rx="24.5" fill="white" fill-opacity="0.1"/>
<path fill-rule="evenodd" clip-rule="evenodd" d="M26.625 16.8125C27.0575 16.8125 27.4377 17.0992 27.5565 17.5151L28.6069 21.1914C29.0666 22.8006 30.3244 24.0584 31.9336 24.5181L35.6099 25.5685C36.0258 25.6873 36.3125 26.0675 36.3125 26.5C36.3125 26.9325 36.0258 27.3127 35.6099 27.4315L31.9336 28.4819C30.3244 28.9416 29.0666 30.1994 28.6069 31.8086L27.5565 35.4849C27.4377 35.9008 27.0575 36.1875 26.625 36.1875C26.1925 36.1875 25.8123 35.9008 25.6935 35.4849L24.6431 31.8086C24.1834 30.1994 22.9256 28.9416 21.3164 28.4819L17.6401 27.4315C17.2242 27.3127 16.9375 26.9325 16.9375 26.5C16.9375 26.0675 17.2242 25.6873 17.6401 25.5685L21.3164 24.5181C22.9256 24.0584 24.1834 22.8006 24.6431 21.1914L25.6935 17.5151C25.8123 17.0992 26.1925 16.8125 26.625 16.8125Z" fill="url(#paint0_linear_33_14816)"/>
<path fill-rule="evenodd" clip-rule="evenodd" d="M38.25 12.9375C38.6945 12.9375 39.082 13.24 39.1898 13.6713L39.5242 15.0088C39.8279 16.2236 40.7764 17.1721 41.9912 17.4758L43.3287 17.8102C43.76 17.918 44.0625 18.3055 44.0625 18.75C44.0625 19.1945 43.76 19.582 43.3287 19.6898L41.9912 20.0242C40.7764 20.3279 39.8279 21.2764 39.5242 22.4912L39.1898 23.8287C39.082 24.26 38.6945 24.5625 38.25 24.5625C37.8055 24.5625 37.418 24.26 37.3102 23.8287L36.9758 22.4912C36.6721 21.2764 35.7236 20.3279 34.5088 20.0242L33.1713 19.6898C32.74 19.582 32.4375 19.1945 32.4375 18.75C32.4375 18.3055 32.74 17.918 33.1713 17.8102L34.5088 17.4758C35.7236 17.1721 36.6721 16.2236 36.9758 15.0088L37.3102 13.6713C37.418 13.24 37.8055 12.9375 38.25 12.9375Z" fill="url(#paint1_linear_33_14816)"/>
<path fill-rule="evenodd" clip-rule="evenodd" d="M36.3125 30.375C36.7295 30.375 37.0997 30.6418 37.2315 31.0374L37.7408 32.5651C37.9336 33.1436 38.3876 33.5976 38.9662 33.7905L40.4938 34.2997C40.8894 34.4316 41.1562 34.8018 41.1562 35.2188C41.1562 35.6357 40.8894 36.0059 40.4938 36.1378L38.9662 36.647C38.3876 36.8399 37.9336 37.2939 37.7408 37.8724L37.2315 39.4001C37.0997 39.7957 36.7295 40.0625 36.3125 40.0625C35.8955 40.0625 35.5253 39.7957 35.3935 39.4001L34.8842 37.8724C34.6914 37.2939 34.2374 36.8399 33.6588 36.647L32.1312 36.1378C31.7356 36.0059 31.4688 35.6357 31.4688 35.2188C31.4688 34.8018 31.7356 34.4316 32.1312 34.2997L33.6588 33.7905C34.2374 33.5976 34.6914 33.1436 34.8842 32.5651L35.3935 31.0374C35.5253 30.6418 35.8955 30.375 36.3125 30.375Z" fill="url(#paint2_linear_33_14816)"/>
</g>
<defs>
<filter id="filter0_di_33_14816" x="0.2" y="-2" width="60.6" height="62.8" filterUnits="userSpaceOnUse" color-interpolation-filters="sRGB">
<feFlood flood-opacity="0" result="BackgroundImageFix"/>
<feColorMatrix in="SourceAlpha" type="matrix" values="0 0 0 0 0 0 0 0 0 0 0 0 0 0 0 0 0 0 127 0" result="hardAlpha"/>
<feOffset dy="4"/>
<feGaussianBlur stdDeviation="2.9"/>
<feComposite in2="hardAlpha" operator="out"/>
<feColorMatrix type="matrix" values="0 0 0 0 0 0 0 0 0 0 0 0 0 0 0 0 0 0 0.07 0"/>
<feBlend mode="normal" in2="BackgroundImageFix" result="effect1_dropShadow_33_14816"/>
<feBlend mode="normal" in="SourceGraphic" in2="effect1_dropShadow_33_14816" result="shape"/>
<feColorMatrix in="SourceAlpha" type="matrix" values="0 0 0 0 0 0 0 0 0 0 0 0 0 0 0 0 0 0 127 0" result="hardAlpha"/>
<feOffset dy="-4"/>
<feGaussianBlur stdDeviation="4"/>
<feComposite in2="hardAlpha" operator="arithmetic" k2="-1" k3="1"/>
<feColorMatrix type="matrix" values="0 0 0 0 1 0 0 0 0 1 0 0 0 0 1 0 0 0 0.64 0"/>
<feBlend mode="normal" in2="shape" result="effect2_innerShadow_33_14816"/>
</filter>
<linearGradient id="paint0_linear_33_14816" x1="30.5" y1="12.9375" x2="30.5" y2="40.0625" gradientUnits="userSpaceOnUse">
<stop stop-color="white"/>
<stop offset="1" stop-color="white" stop-opacity="0.5"/>
</linearGradient>
<linearGradient id="paint1_linear_33_14816" x1="30.5" y1="12.9375" x2="30.5" y2="40.0625" gradientUnits="userSpaceOnUse">
<stop stop-color="white"/>
<stop offset="1" stop-color="white" stop-opacity="0.5"/>
</linearGradient>
<linearGradient id="paint2_linear_33_14816" x1="30.5" y1="12.9375" x2="30.5" y2="40.0625" gradientUnits="userSpaceOnUse">
<stop stop-color="white"/>
<stop offset="1" stop-color="white" stop-opacity="0.5"/>
</linearGradient>
</defs>
</svg>
