<svg width="22" height="22" viewBox="0 0 22 22" fill="none" xmlns="http://www.w3.org/2000/svg">
<g clip-path="url(#clip0_33_14791)">
<path fill-rule="evenodd" clip-rule="evenodd" d="M7.85714 3.14286C8.20795 3.14286 8.51625 3.37541 8.61263 3.71272L9.46455 6.69444C9.83743 7.99954 10.8576 9.01971 12.1627 9.3926L15.1444 10.2445C15.4817 10.3409 15.7143 10.6492 15.7143 11C15.7143 11.3508 15.4817 11.6591 15.1444 11.7555L12.1627 12.6074C10.8576 12.9803 9.83743 14.0005 9.46455 15.3056L8.61263 18.2873C8.51625 18.6246 8.20795 18.8571 7.85714 18.8571C7.50634 18.8571 7.19803 18.6246 7.10166 18.2873L6.24974 15.3056C5.87685 14.0005 4.85669 12.9803 3.55158 12.6074L0.569862 11.7555C0.232554 11.6591 0 11.3508 0 11C0 10.6492 0.232554 10.3409 0.569862 10.2445L3.55159 9.3926C4.85669 9.01971 5.87685 7.99954 6.24974 6.69444L7.10166 3.71272C7.19803 3.37541 7.50634 3.14286 7.85714 3.14286Z" fill="#375DFB"/>
<path fill-rule="evenodd" clip-rule="evenodd" d="M17.2857 0C17.6463 0 17.9605 0.245376 18.048 0.595151L18.3192 1.67992C18.5655 2.6652 19.3348 3.43452 20.3201 3.68084L21.4048 3.95203C21.7546 4.03947 22 4.35375 22 4.71429C22 5.07482 21.7546 5.3891 21.4048 5.47654L20.3201 5.74773C19.3348 5.99405 18.5655 6.76337 18.3192 7.74865L18.048 8.83342C17.9605 9.18319 17.6463 9.42857 17.2857 9.42857C16.9252 9.42857 16.6109 9.18319 16.5235 8.83342L16.2523 7.74865C16.0059 6.76337 15.2366 5.99405 14.2513 5.74773L13.1666 5.47654C12.8168 5.3891 12.5714 5.07482 12.5714 4.71429C12.5714 4.35375 12.8168 4.03947 13.1666 3.95203L14.2513 3.68084C15.2366 3.43452 16.0059 2.6652 16.2523 1.67992L16.5235 0.595151C16.6109 0.245376 16.9252 0 17.2857 0Z" fill="#375DFB"/>
<path fill-rule="evenodd" clip-rule="evenodd" d="M15.7143 14.1429C16.0525 14.1429 16.3527 14.3593 16.4597 14.6801L16.8727 15.9192C17.0291 16.3884 17.3973 16.7566 17.8666 16.913L19.1056 17.326C19.4264 17.433 19.6429 17.7332 19.6429 18.0714C19.6429 18.4096 19.4264 18.7099 19.1056 18.8168L17.8666 19.2298C17.3973 19.3863 17.0291 19.7545 16.8727 20.2237L16.4597 21.4627C16.3527 21.7836 16.0525 22 15.7143 22C15.3761 22 15.0758 21.7836 14.9689 21.4627L14.5559 20.2237C14.3995 19.7545 14.0313 19.3863 13.562 19.2298L12.323 18.8168C12.0021 18.7099 11.7857 18.4096 11.7857 18.0714C11.7857 17.7332 12.0021 17.433 12.323 17.326L13.562 16.913C14.0313 16.7566 14.3995 16.3884 14.5559 15.9192L14.9689 14.6801C15.0758 14.3593 15.3761 14.1429 15.7143 14.1429Z" fill="#A3B6FD"/>
</g>
<defs>
<clipPath id="clip0_33_14791">
<rect width="22" height="22" fill="white"/>
</clipPath>
</defs>
</svg>
