<svg width="22" height="22" viewBox="0 0 22 22" fill="none" xmlns="http://www.w3.org/2000/svg">
<path d="M8.53284 15.4043L7.61538 18.6154L6.69793 15.4043C6.21605 13.7177 4.89768 12.3993 3.21108 11.9175L0 11L3.21109 10.0825C4.89768 9.60066 6.21605 8.28229 6.69793 6.5957L7.61538 3.38462L8.53284 6.5957C9.01472 8.2823 10.3331 9.60066 12.0197 10.0825L15.2308 11L12.0197 11.9175C10.3331 12.3993 9.01472 13.7177 8.53284 15.4043Z" stroke="#525866" stroke-width="1.2" stroke-linecap="round" stroke-linejoin="round"/>
<path d="M18.0613 7.29332L17.7692 8.46154L17.4772 7.29333C17.1361 5.92909 16.0709 4.86388 14.7067 4.52282L13.5385 4.23077L14.7067 3.93872C16.0709 3.59766 17.1361 2.53245 17.4772 1.16821L17.7692 0L18.0613 1.16821C18.4023 2.53245 19.4675 3.59766 20.8318 3.93872L22 4.23077L20.8318 4.52282C19.4675 4.86388 18.4023 5.92908 18.0613 7.29332Z" stroke="#525866" stroke-width="1.2" stroke-linecap="round" stroke-linejoin="round"/>
<path d="M16.5217 20.6656L16.0769 22L15.6321 20.6656C15.3795 19.9076 14.7847 19.3128 14.0267 19.0602L12.6923 18.6154L14.0267 18.1706C14.7847 17.9179 15.3795 17.3231 15.6321 16.5651L16.0769 15.2308L16.5217 16.5651C16.7744 17.3231 17.3692 17.9179 18.1272 18.1706L19.4615 18.6154L18.1272 19.0602C17.3692 19.3128 16.7744 19.9076 16.5217 20.6656Z" stroke="#525866" stroke-width="1.2" stroke-linecap="round" stroke-linejoin="round"/>
</svg>
